<svg xmlns="http://www.w3.org/2000/svg" version="1.1" xmlns:xlink="http://www.w3.org/1999/xlink" xmlns:svgjs="http://svgjs.dev/svgjs" width="1500" height="1500" viewBox="0 0 1500 1500"><rect width="1500" height="1500" fill="#000000"></rect><g transform="matrix(0.6666666666666666,0,0,0.6666666666666666,249.39393939393938,583.6819257898183)"><svg viewBox="0 0 396 132" data-background-color="#000000" preserveAspectRatio="xMidYMid meet" height="500" width="1500" xmlns="http://www.w3.org/2000/svg" xmlns:xlink="http://www.w3.org/1999/xlink"><g id="tight-bounds" transform="matrix(1,0,0,1,0.2400000000000091,-0.1380426127680323)"><svg viewBox="0 0 395.52 132.2760852255361" height="132.2760852255361" width="395.52"><g><svg viewBox="0 0 395.52 132.2760852255361" height="132.2760852255361" width="395.52"><g transform="matrix(1,0,0,1,0,79.48926631151396)"><svg viewBox="0 0 395.52 52.786818914022135" height="52.786818914022135" width="395.52"><g id="textblocktransform"><svg viewBox="0 0 395.52 52.786818914022135" height="52.786818914022135" width="395.52" id="textblock"><g><svg viewBox="0 0 395.52 27.693973857297472" height="27.693973857297472" width="395.52"><g transform="matrix(1,0,0,1,0,0)"><svg width="395.52" viewBox="2.25 -41.5 600.5 42.05" height="27.693973857297472" data-palette-color="#ffffff"><path d="M32.9-28.85L32.9-28.85Q32.9-24.85 30.5-22.2 28.1-19.55 22.85-18.65L22.85-18.65 33.9-5.35Q35.25-3.7 36.88-2.98 38.5-2.25 40.75-1.9L40.75-1.9 40.75 0 31.1 0 18.85-15.7Q18.2-16.55 17.63-17.05 17.05-17.55 16.43-17.82 15.8-18.1 14.98-18.18 14.15-18.25 13-18.25L13-18.25 13-7.85Q13-6 13.23-4.83 13.45-3.65 14.18-3 14.9-2.35 16.28-2.13 17.65-1.9 19.9-1.9L19.9-1.9 19.9 0 2.25 0 2.25-1.9Q4-1.95 5.08-2.2 6.15-2.45 6.75-3.05 7.35-3.65 7.55-4.75 7.75-5.85 7.75-7.6L7.75-7.6 7.75-30.9Q7.75-32.65 7.58-33.73 7.4-34.8 6.88-35.43 6.35-36.05 5.35-36.27 4.35-36.5 2.75-36.6L2.75-36.6 2.75-38.5 18.45-38.5Q25.35-38.5 29.13-35.95 32.9-33.4 32.9-28.85ZM13-35.3L13-20.75 16.55-20.75Q21.55-20.75 23.98-22.58 26.4-24.4 26.4-28.6L26.4-28.6Q26.4-32.65 24.48-34.4 22.55-36.15 18.45-36.15L18.45-36.15 13.85-36.15Q13-36.15 13-35.3L13-35.3ZM63.6-6.05L65.15-4.65Q60.9 0.5 54.6 0.5L54.6 0.5Q51.65 0.5 49.25-0.48 46.85-1.45 45.12-3.23 43.4-5 42.45-7.48 41.5-9.95 41.5-12.95L41.5-12.95Q41.5-16 42.5-18.6 43.5-21.2 45.32-23.05 47.15-24.9 49.67-25.95 52.2-27 55.2-27L55.2-27Q60.05-27 62.7-24.38 65.35-21.75 65.35-16.85L65.35-16.85Q65.35-16.15 65.07-16 64.8-15.85 63.8-15.85L63.8-15.85 47.35-15.85Q47.25-15.45 47.2-14.88 47.15-14.3 47.15-13.6L47.15-13.6Q47.15-11 47.77-8.88 48.4-6.75 49.57-5.25 50.75-3.75 52.37-2.93 54-2.1 56-2.1L56-2.1Q58.1-2.1 59.9-3.03 61.7-3.95 63.6-6.05L63.6-6.05ZM47.7-18.15L56.9-18.15Q57.9-18.15 58.5-18.2 59.1-18.25 59.4-18.4 59.7-18.55 59.8-18.82 59.9-19.1 59.9-19.55L59.9-19.55Q59.9-21.85 58.42-23.23 56.95-24.6 54.4-24.6L54.4-24.6Q49-24.6 47.7-18.15L47.7-18.15ZM73-1.75L72 0 70.9 0 70.9-8.6 72.15-8.6Q74.1-1.55 79.25-1.55L79.25-1.55Q81.25-1.55 82.42-2.53 83.6-3.5 83.6-5.5L83.6-5.5Q83.6-6.25 83.37-6.78 83.15-7.3 82.52-7.88 81.9-8.45 80.77-9.2 79.65-9.95 77.8-11.1L77.8-11.1Q76.1-12.15 74.85-13.05 73.6-13.95 72.75-14.88 71.9-15.8 71.47-16.85 71.05-17.9 71.05-19.3L71.05-19.3Q71.05-21 71.62-22.43 72.2-23.85 73.2-24.85 74.2-25.85 75.55-26.43 76.9-27 78.5-27L78.5-27Q79.85-27 81.3-26.58 82.75-26.15 83.85-25.45L83.85-25.45 84.85-26.5 85.8-26.5 85.8-19.3 84.5-19.3Q83.4-22.35 82.1-23.65 80.8-24.95 78.9-24.95L78.9-24.95Q77.2-24.95 76.17-24.05 75.15-23.15 75.15-21.55L75.15-21.55Q75.15-20.7 75.42-20.08 75.7-19.45 76.3-18.85 76.9-18.25 77.82-17.63 78.75-17 80.05-16.2L80.05-16.2Q82.2-14.85 83.72-13.8 85.25-12.75 86.2-11.73 87.15-10.7 87.6-9.6 88.05-8.5 88.05-7.1L88.05-7.1Q88.05-3.55 85.75-1.53 83.45 0.5 79.7 0.5L79.7 0.5Q75.8 0.5 73-1.75L73-1.75ZM95.39-23.35L92.39-23.35 92.39-25.2Q95.04-26.75 96.54-28.3 98.04-29.85 98.84-32L98.84-32 100.29-32 100.29-25.7 106.99-25.7 106.99-23.35 100.29-23.35 100.29-8.15Q100.29-6.4 100.47-5.2 100.64-4 101.04-3.28 101.44-2.55 102.09-2.25 102.74-1.95 103.74-1.95L103.74-1.95Q104.99-1.95 105.87-2.48 106.74-3 107.59-4.25L107.59-4.25 108.84-3.3Q108.14-1.45 106.42-0.48 104.69 0.5 102.14 0.5L102.14 0.5Q98.84 0.5 97.12-1.07 95.39-2.65 95.39-5.6L95.39-5.6 95.39-23.35ZM126.74-10.85L126.74-14.8Q123.89-13.7 121.92-12.65 119.94-11.6 118.74-10.55 117.54-9.5 117.02-8.45 116.49-7.4 116.49-6.3L116.49-6.3Q116.49-4.65 117.59-3.6 118.69-2.55 120.49-2.55L120.49-2.55Q121.79-2.55 122.92-3.2 124.04-3.85 124.89-4.98 125.74-6.1 126.24-7.63 126.74-9.15 126.74-10.85L126.74-10.85ZM119.54-13.8L126.74-16.95 126.74-19Q126.74-25.1 121.54-25.1L121.54-25.1Q120.69-25.1 120.09-24.95 119.49-24.8 119.09-24.45 118.69-24.1 118.37-23.45 118.04-22.8 117.74-21.85L117.74-21.85Q117.19-20.4 116.67-19.93 116.14-19.45 115.14-19.45L115.14-19.45Q112.64-19.45 112.64-21.95L112.64-21.95Q112.64-24.35 115.19-25.68 117.74-27 122.44-27L122.44-27Q127.44-27 129.54-25.23 131.64-23.45 131.64-19.2L131.64-19.2 131.64-8Q131.64-2.3 133.89-2.3L133.89-2.3Q134.59-2.3 135.24-2.48 135.89-2.65 136.34-3.4L136.34-3.4 137.04-2.2Q136.44-1.05 134.84-0.28 133.24 0.5 131.49 0.5L131.49 0.5Q129.29 0.5 128.22-0.9 127.14-2.3 127.14-4.85L127.14-4.85 126.89-4.85Q125.59-2.4 123.29-0.98 120.99 0.45 118.19 0.45L118.19 0.45Q115.04 0.45 113.24-1.15 111.44-2.75 111.44-5.45L111.44-5.45Q111.44-6.65 111.87-7.75 112.29-8.85 113.24-9.85 114.19-10.85 115.74-11.83 117.29-12.8 119.54-13.8L119.54-13.8ZM160.14-13.6L160.14-18.5Q160.14-20.55 160.04-21.73 159.94-22.9 159.51-23.53 159.09-24.15 158.26-24.38 157.44-24.6 155.99-24.75L155.99-24.75 155.99-26.5 165.04-26.5 165.04-11.15Q165.04-8.3 165.11-6.5 165.19-4.7 165.34-3.8L165.34-3.8Q165.44-3.15 165.66-2.78 165.89-2.4 166.34-2.18 166.79-1.95 167.51-1.88 168.24-1.8 169.39-1.8L169.39-1.8 169.39-0.05 161.14 0.55 160.59-5.45 160.39-5.45Q158.49-2.35 156.01-0.93 153.54 0.5 150.84 0.5L150.84 0.5Q148.74 0.5 146.76-0.3 144.79-1.1 143.79-2.45L143.79-2.45Q142.94-3.55 142.56-5.5 142.19-7.45 142.19-10.55L142.19-10.55 142.19-18.5Q142.19-20.55 142.09-21.73 141.99-22.9 141.56-23.53 141.14-24.15 140.31-24.38 139.49-24.6 138.04-24.75L138.04-24.75 138.04-26.5 147.09-26.5 147.09-12.85Q147.09-7.4 148.36-4.95 149.64-2.5 152.44-2.5L152.44-2.5Q156.84-2.5 159.29-8.25L159.29-8.25Q159.54-8.85 159.69-9.35 159.84-9.85 159.94-10.45 160.04-11.05 160.09-11.8 160.14-12.55 160.14-13.6L160.14-13.6ZM181.59-9.65L181.59-7.95Q181.59-5.9 181.69-4.7 181.79-3.5 182.21-2.88 182.64-2.25 183.44-2.05 184.24-1.85 185.69-1.75L185.69-1.75 185.69 0 172.39 0 172.39-1.75Q173.84-1.8 174.69-2.02 175.54-2.25 175.99-2.85 176.44-3.45 176.56-4.58 176.69-5.7 176.69-7.6L176.69-7.6 176.69-13.45Q176.69-16.85 176.61-18.75 176.54-20.65 176.11-21.55 175.69-22.45 174.79-22.63 173.89-22.8 172.29-22.8L172.29-22.8 172.29-24.55 181.04-26.45 181.74-20.25 181.94-20.25Q182.59-21.75 183.56-23 184.54-24.25 185.69-25.13 186.84-26 188.09-26.5 189.34-27 190.64-27L190.64-27Q192.24-27 193.16-26.23 194.09-25.45 194.09-24.15L194.09-24.15Q194.09-22.95 193.34-22.28 192.59-21.6 191.19-21.6L191.19-21.6Q190.39-21.6 189.84-21.8 189.29-22 188.86-22.23 188.44-22.45 188.06-22.65 187.69-22.85 187.24-22.85L187.24-22.85Q185.89-22.85 184.54-21.13 183.19-19.4 182.44-16.75L182.44-16.75Q182.04-15.3 181.81-13.48 181.59-11.65 181.59-9.65L181.59-9.65ZM211.78-10.85L211.78-14.8Q208.93-13.7 206.96-12.65 204.98-11.6 203.78-10.55 202.58-9.5 202.06-8.45 201.53-7.4 201.53-6.3L201.53-6.3Q201.53-4.65 202.63-3.6 203.73-2.55 205.53-2.55L205.53-2.55Q206.83-2.55 207.96-3.2 209.08-3.85 209.93-4.98 210.78-6.1 211.28-7.63 211.78-9.15 211.78-10.85L211.78-10.85ZM204.58-13.8L211.78-16.95 211.78-19Q211.78-25.1 206.58-25.1L206.58-25.1Q205.73-25.1 205.13-24.95 204.53-24.8 204.13-24.45 203.73-24.1 203.41-23.45 203.08-22.8 202.78-21.85L202.78-21.85Q202.23-20.4 201.71-19.93 201.18-19.45 200.18-19.45L200.18-19.45Q197.68-19.45 197.68-21.95L197.68-21.95Q197.68-24.35 200.23-25.68 202.78-27 207.48-27L207.48-27Q212.48-27 214.58-25.23 216.68-23.45 216.68-19.2L216.68-19.2 216.68-8Q216.68-2.3 218.93-2.3L218.93-2.3Q219.63-2.3 220.28-2.48 220.93-2.65 221.38-3.4L221.38-3.4 222.08-2.2Q221.48-1.05 219.88-0.28 218.28 0.5 216.53 0.5L216.53 0.5Q214.33 0.5 213.26-0.9 212.18-2.3 212.18-4.85L212.18-4.85 211.93-4.85Q210.63-2.4 208.33-0.98 206.03 0.45 203.23 0.45L203.23 0.45Q200.08 0.45 198.28-1.15 196.48-2.75 196.48-5.45L196.48-5.45Q196.48-6.65 196.91-7.75 197.33-8.85 198.28-9.85 199.23-10.85 200.78-11.83 202.33-12.8 204.58-13.8L204.58-13.8ZM232.83-14.55L232.83-7.85Q232.83-5.8 232.93-4.63 233.03-3.45 233.46-2.83 233.88-2.2 234.71-2 235.53-1.8 236.98-1.7L236.98-1.7 236.98 0 223.88 0 223.88-1.7Q225.28-1.8 226.11-2 226.93-2.2 227.38-2.8 227.83-3.4 227.96-4.5 228.08-5.6 228.08-7.5L228.08-7.5 228.08-14.15Q228.08-20.1 227.78-21.4L227.78-21.4Q227.63-22.05 227.41-22.48 227.18-22.9 226.73-23.13 226.28-23.35 225.58-23.43 224.88-23.5 223.78-23.5L223.78-23.5 223.78-25.1 231.78-27 232.38-22.05 232.58-22.05Q234.48-24.4 237.03-25.7 239.58-27 242.58-27L242.58-27Q244.88-27 246.78-26.25 248.68-25.5 249.68-24.2L249.68-24.2Q250.53-23.05 250.88-21.23 251.23-19.4 251.23-16.2L251.23-16.2 251.23-7.85Q251.23-5.8 251.36-4.63 251.48-3.45 251.88-2.83 252.28-2.2 253.11-2 253.93-1.8 255.28-1.7L255.28-1.7 255.28 0 242.33 0 242.33-1.7Q243.73-1.75 244.56-1.98 245.38-2.2 245.81-2.8 246.23-3.4 246.36-4.53 246.48-5.65 246.48-7.5L246.48-7.5 246.48-14.1Q246.48-16.95 246.18-18.9 245.88-20.85 245.21-22.05 244.53-23.25 243.43-23.78 242.33-24.3 240.78-24.3L240.78-24.3Q238.53-24.3 236.66-23.13 234.78-21.95 233.73-19.9L233.73-19.9Q233.48-19.4 233.31-18.95 233.13-18.5 233.03-17.9 232.93-17.3 232.88-16.53 232.83-15.75 232.83-14.55L232.83-14.55ZM261.48-23.35L258.48-23.35 258.48-25.2Q261.13-26.75 262.63-28.3 264.13-29.85 264.93-32L264.93-32 266.38-32 266.38-25.7 273.08-25.7 273.08-23.35 266.38-23.35 266.38-8.15Q266.38-6.4 266.55-5.2 266.73-4 267.13-3.28 267.53-2.55 268.18-2.25 268.83-1.95 269.83-1.95L269.83-1.95Q271.08-1.95 271.95-2.48 272.83-3 273.68-4.25L273.68-4.25 274.93-3.3Q274.23-1.45 272.5-0.48 270.78 0.5 268.23 0.5L268.23 0.5Q264.93 0.5 263.2-1.07 261.48-2.65 261.48-5.6L261.48-5.6 261.48-23.35ZM299.93-6.05L301.48-4.65Q297.23 0.5 290.93 0.5L290.93 0.5Q287.98 0.5 285.57-0.48 283.18-1.45 281.45-3.23 279.73-5 278.77-7.48 277.82-9.95 277.82-12.95L277.82-12.95Q277.82-16 278.82-18.6 279.82-21.2 281.65-23.05 283.48-24.9 286-25.95 288.52-27 291.52-27L291.52-27Q296.38-27 299.02-24.38 301.68-21.75 301.68-16.85L301.68-16.85Q301.68-16.15 301.4-16 301.13-15.85 300.13-15.85L300.13-15.85 283.68-15.85Q283.57-15.45 283.52-14.88 283.48-14.3 283.48-13.6L283.48-13.6Q283.48-11 284.1-8.88 284.73-6.75 285.9-5.25 287.07-3.75 288.7-2.93 290.32-2.1 292.32-2.1L292.32-2.1Q294.43-2.1 296.23-3.03 298.02-3.95 299.93-6.05L299.93-6.05ZM284.02-18.15L293.23-18.15Q294.23-18.15 294.82-18.2 295.43-18.25 295.73-18.4 296.02-18.55 296.13-18.82 296.23-19.1 296.23-19.55L296.23-19.55Q296.23-21.85 294.75-23.23 293.27-24.6 290.73-24.6L290.73-24.6Q285.32-24.6 284.02-18.15L284.02-18.15ZM338.27 0L320.27 0 320.27-1.9Q322.22-1.95 323.39-2.2 324.57-2.45 325.19-3.05 325.82-3.65 326.05-4.75 326.27-5.85 326.27-7.6L326.27-7.6 326.27-30.9Q326.27-32.65 326.1-33.73 325.92-34.8 325.39-35.43 324.87-36.05 323.87-36.27 322.87-36.5 321.27-36.6L321.27-36.6 321.27-38.5 336.22-38.5Q342.97-38.5 346.72-36.1 350.47-33.7 350.47-29.35L350.47-29.35Q350.47-26.05 348.39-23.95 346.32-21.85 341.82-20.5L341.82-20.5 341.82-20.3Q343.37-20.15 344.52-19.95 345.67-19.75 346.57-19.48 347.47-19.2 348.25-18.8 349.02-18.4 349.77-17.9L349.77-17.9Q354.22-14.75 354.22-10L354.22-10Q354.22-7.35 352.75-5.08 351.27-2.8 348.62-1.5L348.62-1.5Q347.77-1.05 346.87-0.78 345.97-0.5 344.77-0.33 343.57-0.15 342-0.08 340.42 0 338.27 0L338.27 0ZM338.42-2.15L338.42-2.15Q347.47-2.15 347.47-9.9L347.47-9.9Q347.47-15.55 342.82-17.8L342.82-17.8Q342.02-18.15 341.27-18.4 340.52-18.65 339.52-18.78 338.52-18.9 337.14-18.95 335.77-19 333.77-19L333.77-19 331.52-19 331.52-7.85Q331.52-4.8 333.12-3.48 334.72-2.15 338.42-2.15ZM331.52-21.5L334.32-21.5Q335.87-21.5 336.92-21.55 337.97-21.6 338.72-21.73 339.47-21.85 340.05-22.08 340.62-22.3 341.22-22.7L341.22-22.7Q342.82-23.7 343.5-25.1 344.17-26.5 344.17-28.75L344.17-28.75Q344.17-32.7 342.25-34.43 340.32-36.15 336.22-36.15L336.22-36.15 332.37-36.15Q331.52-36.15 331.52-35.3L331.52-35.3 331.52-21.5ZM372.97-27L372.97-27Q375.82-27 378.37-25.98 380.92-24.95 382.84-23.15 384.77-21.35 385.89-18.88 387.02-16.4 387.02-13.45L387.02-13.45Q387.02-10.4 385.89-7.85 384.77-5.3 382.84-3.45 380.92-1.6 378.37-0.55 375.82 0.5 372.97 0.5L372.97 0.5Q370.17 0.5 367.64-0.53 365.12-1.55 363.22-3.4 361.32-5.25 360.22-7.83 359.12-10.4 359.12-13.45L359.12-13.45Q359.12-16.4 360.22-18.9 361.32-21.4 363.22-23.2 365.12-25 367.64-26 370.17-27 372.97-27ZM372.97-24.6L372.97-24.6Q371.12-24.6 369.59-23.8 368.07-23 366.99-21.53 365.92-20.05 365.34-17.98 364.77-15.9 364.77-13.4L364.77-13.4Q364.77-10.8 365.34-8.7 365.92-6.6 366.99-5.13 368.07-3.65 369.57-2.85 371.07-2.05 372.97-2.05L372.97-2.05Q374.87-2.05 376.42-2.85 377.97-3.65 379.07-5.15 380.17-6.65 380.77-8.75 381.37-10.85 381.37-13.4L381.37-13.4Q381.37-15.9 380.77-17.95 380.17-20 379.07-21.48 377.97-22.95 376.42-23.78 374.87-24.6 372.97-24.6ZM400.47-14.35L400.47-8Q400.47-5.9 400.56-4.7 400.67-3.5 401.09-2.88 401.52-2.25 402.31-2.05 403.12-1.85 404.56-1.75L404.56-1.75 404.56 0 391.27 0 391.27-1.75Q392.72-1.85 393.56-2.05 394.42-2.25 394.87-2.85 395.31-3.45 395.44-4.58 395.56-5.7 395.56-7.6L395.56-7.6 395.56-14Q395.56-16.85 395.49-18.75 395.42-20.65 395.22-21.35L395.22-21.35Q395.06-22 394.87-22.38 394.67-22.75 394.22-22.98 393.77-23.2 393.04-23.28 392.31-23.35 391.17-23.35L391.17-23.35 391.17-25.1 399.31-27 399.97-22 400.22-22Q402.47-24.55 404.94-25.78 407.42-27 410.42-27L410.42-27Q413.56-27 415.72-25.73 417.87-24.45 418.72-22.05L418.72-22.05 418.92-22.05Q420.77-24.4 423.42-25.7 426.06-27 429.07-27L429.07-27Q431.42-27 433.34-26.23 435.27-25.45 436.27-24.1L436.27-24.1Q437.17-22.95 437.54-21.08 437.92-19.2 437.92-15.95L437.92-15.95 437.92-8Q437.92-5.95 438.04-4.75 438.17-3.55 438.57-2.9 438.97-2.25 439.79-2.05 440.62-1.85 442.07-1.75L442.07-1.75 442.07 0 428.77 0 428.77-1.75Q430.17-1.8 431.02-2.02 431.87-2.25 432.32-2.88 432.77-3.5 432.89-4.6 433.02-5.7 433.02-7.6L433.02-7.6 433.02-13.9Q433.02-16.75 432.72-18.73 432.42-20.7 431.72-21.93 431.02-23.15 429.89-23.7 428.77-24.25 427.17-24.25L427.17-24.25Q424.97-24.25 423.04-23.03 421.12-21.8 420.02-19.75L420.02-19.75Q419.77-19.25 419.59-18.78 419.42-18.3 419.31-17.73 419.22-17.15 419.19-16.35 419.17-15.55 419.17-14.35L419.17-14.35 419.17-8Q419.17-5.95 419.27-4.75 419.37-3.55 419.79-2.9 420.22-2.25 421.06-2.05 421.92-1.85 423.37-1.75L423.37-1.75 423.37 0 410.06 0 410.06-1.75Q411.47-1.85 412.31-2.05 413.17-2.25 413.59-2.85 414.02-3.45 414.14-4.58 414.27-5.7 414.27-7.6L414.27-7.6 414.27-13.9Q414.27-16.8 413.97-18.78 413.67-20.75 412.99-21.98 412.31-23.2 411.22-23.73 410.12-24.25 408.52-24.25L408.52-24.25Q406.27-24.25 404.29-23.03 402.31-21.8 401.31-19.75L401.31-19.75Q401.06-19.25 400.89-18.78 400.72-18.3 400.62-17.73 400.52-17.15 400.49-16.35 400.47-15.55 400.47-14.35L400.47-14.35ZM478.81 0.5L478.81 0.5Q474.56 0.5 471.16-0.85 467.76-2.2 465.36-4.67 462.96-7.15 461.69-10.7 460.41-14.25 460.41-18.6L460.41-18.6Q460.41-23.15 461.81-26.9 463.21-30.65 465.74-33.35 468.26-36.05 471.79-37.52 475.31-39 479.56-39L479.56-39Q482.56-39 485.21-38.15 487.86-37.3 490.96-35.4L490.96-35.4 492.01-38.5 493.76-38.5 493.11-27 490.71-27Q490.71-29.45 489.79-31.23 488.86-33 487.36-34.15 485.86-35.3 483.94-35.85 482.01-36.4 480.01-36.4L480.01-36.4Q476.96-36.4 474.56-35.2 472.16-34 470.51-31.75 468.86-29.5 467.99-26.25 467.11-23 467.11-18.9L467.11-18.9Q467.11-10.85 470.46-6.53 473.81-2.2 480.16-2.2L480.16-2.2Q482.56-2.2 484.46-2.78 486.36-3.35 487.69-4.33 489.01-5.3 489.69-6.58 490.36-7.85 490.36-9.25L490.36-9.25Q490.36-12.15 489.19-13.18 488.01-14.2 485.36-14.2L485.36-14.2 485.36-16.1 499.56-16.1 499.56-14.2Q498.36-14.2 497.56-14 496.76-13.8 496.29-13.28 495.81-12.75 495.64-11.9 495.46-11.05 495.46-9.75L495.46-9.75 495.46-4.15Q494.51-4.15 493.74-4.08 492.96-4 492.11-3.73 491.26-3.45 490.24-2.98 489.21-2.5 487.81-1.7L487.81-1.7Q486.06-0.7 483.79-0.1 481.51 0.5 478.81 0.5ZM518.36-10.85L518.36-14.8Q515.51-13.7 513.53-12.65 511.56-11.6 510.36-10.55 509.16-9.5 508.63-8.45 508.11-7.4 508.11-6.3L508.11-6.3Q508.11-4.65 509.21-3.6 510.31-2.55 512.11-2.55L512.11-2.55Q513.41-2.55 514.53-3.2 515.66-3.85 516.51-4.98 517.36-6.1 517.86-7.63 518.36-9.15 518.36-10.85L518.36-10.85ZM511.16-13.8L518.36-16.95 518.36-19Q518.36-25.1 513.16-25.1L513.16-25.1Q512.31-25.1 511.71-24.95 511.11-24.8 510.71-24.45 510.31-24.1 509.98-23.45 509.66-22.8 509.36-21.85L509.36-21.85Q508.81-20.4 508.28-19.93 507.76-19.45 506.76-19.45L506.76-19.45Q504.26-19.45 504.26-21.95L504.26-21.95Q504.26-24.35 506.81-25.68 509.36-27 514.06-27L514.06-27Q519.06-27 521.16-25.23 523.26-23.45 523.26-19.2L523.26-19.2 523.26-8Q523.26-2.3 525.51-2.3L525.51-2.3Q526.21-2.3 526.86-2.48 527.51-2.65 527.96-3.4L527.96-3.4 528.66-2.2Q528.06-1.05 526.46-0.28 524.86 0.5 523.11 0.5L523.11 0.5Q520.91 0.5 519.83-0.9 518.76-2.3 518.76-4.85L518.76-4.85 518.51-4.85Q517.21-2.4 514.91-0.98 512.61 0.45 509.81 0.45L509.81 0.45Q506.66 0.45 504.86-1.15 503.06-2.75 503.06-5.45L503.06-5.45Q503.06-6.65 503.48-7.75 503.91-8.85 504.86-9.85 505.81-10.85 507.36-11.83 508.91-12.8 511.16-13.8L511.16-13.8ZM539.71-9.65L539.71-7.95Q539.71-5.9 539.81-4.7 539.9-3.5 540.33-2.88 540.75-2.25 541.56-2.05 542.36-1.85 543.81-1.75L543.81-1.75 543.81 0 530.5 0 530.5-1.75Q531.96-1.8 532.81-2.02 533.65-2.25 534.11-2.85 534.56-3.45 534.68-4.58 534.81-5.7 534.81-7.6L534.81-7.6 534.81-13.45Q534.81-16.85 534.73-18.75 534.65-20.65 534.23-21.55 533.81-22.45 532.9-22.63 532-22.8 530.4-22.8L530.4-22.8 530.4-24.55 539.15-26.45 539.86-20.25 540.06-20.25Q540.71-21.75 541.68-23 542.65-24.25 543.81-25.13 544.96-26 546.21-26.5 547.46-27 548.75-27L548.75-27Q550.36-27 551.28-26.23 552.21-25.45 552.21-24.15L552.21-24.15Q552.21-22.95 551.46-22.28 550.71-21.6 549.31-21.6L549.31-21.6Q548.5-21.6 547.96-21.8 547.4-22 546.98-22.23 546.56-22.45 546.18-22.65 545.81-22.85 545.36-22.85L545.36-22.85Q544-22.85 542.65-21.13 541.31-19.4 540.56-16.75L540.56-16.75Q540.15-15.3 539.93-13.48 539.71-11.65 539.71-9.65L539.71-9.65ZM553.55-23.35L553.55-25.7 559.2-25.7 559.2-29.3Q559.2-35.05 562.23-38.27 565.25-41.5 570.85-41.5L570.85-41.5Q573.95-41.5 575.9-40.55 577.85-39.6 577.85-38.1L577.85-38.1Q577.85-37.1 577.23-36.43 576.6-35.75 575.65-35.75L575.65-35.75Q575.05-35.75 574.38-36.13 573.7-36.5 572.6-37.4L572.6-37.4Q571.35-38.45 570.65-38.78 569.95-39.1 569-39.1L569-39.1Q566-39.1 564.7-36.05L564.7-36.05Q564.25-35.05 564.08-33.6 563.9-32.15 563.9-29.6L563.9-29.6 563.9-25.7 571.95-25.7 571.95-23.35 563.9-23.35 563.9-8.05Q563.9-6.2 564.13-5 564.35-3.8 564.93-3.08 565.5-2.35 566.5-2.08 567.5-1.8 569.1-1.75L569.1-1.75 569.1 0 554.9 0 554.9-1.75Q556.3-1.8 557.15-2.02 558-2.25 558.45-2.88 558.9-3.5 559.05-4.63 559.2-5.75 559.2-7.65L559.2-7.65 559.2-23.35 553.55-23.35ZM588.7-27L588.7-27Q591.55-27 594.1-25.98 596.65-24.95 598.57-23.15 600.5-21.35 601.62-18.88 602.75-16.4 602.75-13.45L602.75-13.45Q602.75-10.4 601.62-7.85 600.5-5.3 598.57-3.45 596.65-1.6 594.1-0.55 591.55 0.5 588.7 0.5L588.7 0.5Q585.9 0.5 583.37-0.53 580.85-1.55 578.95-3.4 577.05-5.25 575.95-7.83 574.85-10.4 574.85-13.45L574.85-13.45Q574.85-16.4 575.95-18.9 577.05-21.4 578.95-23.2 580.85-25 583.37-26 585.9-27 588.7-27ZM588.7-24.6L588.7-24.6Q586.85-24.6 585.32-23.8 583.8-23 582.72-21.53 581.65-20.05 581.07-17.98 580.5-15.9 580.5-13.4L580.5-13.4Q580.5-10.8 581.07-8.7 581.65-6.6 582.72-5.13 583.8-3.65 585.3-2.85 586.8-2.05 588.7-2.05L588.7-2.05Q590.6-2.05 592.15-2.85 593.7-3.65 594.8-5.15 595.9-6.65 596.5-8.75 597.1-10.85 597.1-13.4L597.1-13.4Q597.1-15.9 596.5-17.95 595.9-20 594.8-21.48 593.7-22.95 592.15-23.78 590.6-24.6 588.7-24.6Z" opacity="1" transform="matrix(1,0,0,1,0,0)" fill="#ffffff" class="wordmark-text-0" data-fill-palette-color="primary" id="text-0"></path></svg></g></svg></g><g transform="matrix(1,0,0,1,144.32822528384793,34.23185642963283)"><svg viewBox="0 0 106.8635494323041 18.554962484389307" height="18.554962484389307" width="106.8635494323041"><g transform="matrix(1,0,0,1,0,0)"><svg width="106.8635494323041" viewBox="0.1 -36.05 278.71 48.39999999999999" height="18.554962484389307" data-palette-color="#ffffff"><path d="M11.95 0.15L18.2-18.15Q18.6-19.4 19.6-19.98 20.6-20.55 22.9-20.8L22.9-20.8 22.9-21.2 13.95-21.2 13.95-20.8Q15.95-20.5 16.7-20.13 17.45-19.75 17.45-18.95L17.45-18.95Q17.45-18.4 17.15-17.4L17.15-17.4 12.65-3.9 12.45-3.9 7.25-18.65Q6.9-19.65 6.9-19.95L6.9-19.95Q6.9-20.35 7.43-20.53 7.95-20.7 9.75-20.8L9.75-20.8 9.75-21.2 0.1-21.2 0.1-20.8Q1.8-20.7 2.48-20.28 3.15-19.85 3.6-18.7L3.6-18.7 10.95 0.15 11.95 0.15ZM25.55-28.9Q25.55-29.95 26.22-30.63 26.9-31.3 27.95-31.3L27.95-31.3Q29-31.3 29.67-30.63 30.35-29.95 30.35-28.9L30.35-28.9Q30.35-27.85 29.67-27.18 29-26.5 27.95-26.5L27.95-26.5Q26.9-26.5 26.22-27.18 25.55-27.85 25.55-28.9L25.55-28.9ZM29.85-0.8L29.85-21.7 29.45-21.7 23.65-19.75 23.65-19.4 26.6-18.3 26.6-0.8 23.55-0.4 23.55 0 32.9 0 32.9-0.4 29.85-0.8ZM40.25 0.35Q38.35 0.35 37.12-0.98 35.9-2.3 35.9-4.4L35.9-4.4Q35.9-6.9 38.17-8.4 40.45-9.9 45.9-11L45.9-11 45.9-15.55Q45.9-18.45 45.25-19.58 44.6-20.7 43-20.7L43-20.7Q41.45-20.7 40.5-19.88 39.55-19.05 39.55-17.65L39.55-17.65 39.6-16.3Q39.6-15.05 39.12-14.33 38.65-13.6 37.8-13.6L37.8-13.6Q37.05-13.6 36.57-14.1 36.1-14.6 36.1-15.4L36.1-15.4Q36.1-16.6 37.27-18.03 38.45-19.45 40.3-20.4L40.3-20.4Q42.55-21.65 44.95-21.65L44.95-21.65Q46.35-21.65 47.32-21.1 48.3-20.55 48.75-19.55L48.75-19.55Q49-18.9 49.07-17.95 49.15-17 49.15-14.3L49.15-14.3 49.15-4.75Q49.15-2.95 49.5-2.27 49.85-1.6 50.75-1.6L50.75-1.6Q52.1-1.6 52.75-2.55L52.75-2.55 52.95-2.45Q52.35-1.2 51.35-0.53 50.35 0.15 49.2 0.15L49.2 0.15Q47.9 0.15 47.05-0.63 46.2-1.4 46.1-2.7L46.1-2.7 45.95-2.75Q44.8-1.3 43.3-0.48 41.8 0.35 40.25 0.35L40.25 0.35ZM42.4-1.55Q43.45-1.55 44.37-2.02 45.3-2.5 45.9-3.4L45.9-3.4 45.9-10.45Q43.3-9.8 41.87-9.15 40.45-8.5 39.85-7.6 39.25-6.7 39.25-5.35L39.25-5.35Q39.25-3.6 40.1-2.58 40.95-1.55 42.4-1.55L42.4-1.55ZM56.29-28.9Q56.29-29.95 56.97-30.63 57.64-31.3 58.69-31.3L58.69-31.3Q59.74-31.3 60.42-30.63 61.09-29.95 61.09-28.9L61.09-28.9Q61.09-27.85 60.42-27.18 59.74-26.5 58.69-26.5L58.69-26.5Q57.64-26.5 56.97-27.18 56.29-27.85 56.29-28.9L56.29-28.9ZM57.34 5.1Q57.34 8.35 56.64 9.88 55.94 11.4 54.49 11.4L54.49 11.4Q53.69 11.4 53.29 10.98 52.89 10.55 52.64 9.4L52.64 9.4Q52.39 8.4 51.92 7.93 51.44 7.45 50.69 7.45L50.69 7.45Q49.84 7.45 49.32 8 48.79 8.55 48.79 9.45L48.79 9.45Q48.79 10.75 49.87 11.55 50.94 12.35 52.64 12.35L52.64 12.35Q54.74 12.35 56.52 11.18 58.29 10 59.44 7.9L59.44 7.9Q60.14 6.6 60.37 4.75 60.59 2.9 60.59-2L60.59-2 60.59-21.7 60.19-21.7 54.39-19.75 54.39-19.4 57.34-18.3 57.34 5.1ZM82.69-5.1L83.14-5.7 83.34-5.6 83.14-5.05Q82.14-2.4 80.17-0.95 78.19 0.5 75.44 0.5L75.44 0.5Q72.74 0.5 70.64-0.9 68.54-2.3 67.37-4.8 66.19-7.3 66.19-10.55L66.19-10.55Q66.19-13.8 67.44-16.35 68.69-18.9 70.99-20.3 73.29-21.7 76.24-21.7L76.24-21.7Q79.74-21.7 81.62-19.63 83.49-17.55 83.54-13.6L83.54-13.6 83.24-13.35 69.74-13.35Q69.64-12.05 69.64-11.3L69.64-11.3Q69.64-6.75 71.49-4.38 73.34-2 76.64-2L76.64-2Q78.34-2 79.92-2.78 81.49-3.55 82.69-5.1L82.69-5.1ZM75.69-21.15Q73.34-21.15 71.79-19.2 70.24-17.25 69.79-13.9L69.79-13.9 79.49-14.25Q79.64-14.85 79.64-16.25L79.64-16.25Q79.64-18.95 78.62-20.05 77.59-21.15 75.69-21.15L75.69-21.15ZM115.84-5.1L116.29-5.7 116.49-5.6 116.29-5.05Q115.29-2.4 113.31-0.95 111.34 0.5 108.59 0.5L108.59 0.5Q105.89 0.5 103.79-0.9 101.69-2.3 100.51-4.8 99.34-7.3 99.34-10.55L99.34-10.55Q99.34-13.8 100.59-16.35 101.84-18.9 104.14-20.3 106.44-21.7 109.39-21.7L109.39-21.7Q112.89-21.7 114.76-19.63 116.64-17.55 116.69-13.6L116.69-13.6 116.39-13.35 102.89-13.35Q102.79-12.05 102.79-11.3L102.79-11.3Q102.79-6.75 104.64-4.38 106.49-2 109.79-2L109.79-2Q111.49-2 113.06-2.78 114.64-3.55 115.84-5.1L115.84-5.1ZM108.84-21.15Q106.49-21.15 104.94-19.2 103.39-17.25 102.94-13.9L102.94-13.9 112.64-14.25Q112.79-14.85 112.79-16.25L112.79-16.25Q112.79-18.95 111.76-20.05 110.74-21.15 108.84-21.15L108.84-21.15ZM140.23-21.7Q136.73-21.7 134.81-20.15 132.88-18.6 132.88-15.8L132.88-15.8Q132.88-14.05 133.58-12.9 134.28-11.75 135.31-11.08 136.33-10.4 138.03-9.55L138.03-9.55Q140.33-8.45 141.48-7.4 142.63-6.35 142.63-4.3L142.63-4.3Q142.63-2.4 141.53-1.23 140.43-0.05 138.58-0.05L138.58-0.05Q136.53-0.05 135.26-1.73 133.98-3.4 133.48-6.9L133.48-6.9 132.88-6.9 133.13-0.4Q134.18 0 135.68 0.25 137.18 0.5 138.38 0.5L138.38 0.5Q141.68 0.5 143.63-1.28 145.58-3.05 145.58-6.1L145.58-6.1Q145.58-7.95 144.86-9.15 144.13-10.35 143.11-11.03 142.08-11.7 140.33-12.5L140.33-12.5Q138.08-13.55 136.98-14.53 135.88-15.5 135.88-17.4L135.88-17.4Q135.88-19.1 136.88-20.13 137.88-21.15 139.53-21.15L139.53-21.15Q141.33-21.15 142.41-19.8 143.48-18.45 144.18-15.45L144.18-15.45 144.73-15.45 144.73-21Q143.93-21.3 142.68-21.5 141.43-21.7 140.23-21.7L140.23-21.7ZM154.18 0.35Q152.28 0.35 151.05-0.98 149.83-2.3 149.83-4.4L149.83-4.4Q149.83-6.9 152.1-8.4 154.38-9.9 159.83-11L159.83-11 159.83-15.55Q159.83-18.45 159.18-19.58 158.53-20.7 156.93-20.7L156.93-20.7Q155.38-20.7 154.43-19.88 153.48-19.05 153.48-17.65L153.48-17.65 153.53-16.3Q153.53-15.05 153.05-14.33 152.58-13.6 151.73-13.6L151.73-13.6Q150.98-13.6 150.5-14.1 150.03-14.6 150.03-15.4L150.03-15.4Q150.03-16.6 151.2-18.03 152.38-19.45 154.23-20.4L154.23-20.4Q156.48-21.65 158.88-21.65L158.88-21.65Q160.28-21.65 161.25-21.1 162.23-20.55 162.68-19.55L162.68-19.55Q162.93-18.9 163-17.95 163.08-17 163.08-14.3L163.08-14.3 163.08-4.75Q163.08-2.95 163.43-2.27 163.78-1.6 164.68-1.6L164.68-1.6Q166.03-1.6 166.68-2.55L166.68-2.55 166.88-2.45Q166.28-1.2 165.28-0.53 164.28 0.15 163.13 0.15L163.13 0.15Q161.83 0.15 160.98-0.63 160.13-1.4 160.03-2.7L160.03-2.7 159.88-2.75Q158.73-1.3 157.23-0.48 155.73 0.35 154.18 0.35L154.18 0.35ZM156.33-1.55Q157.38-1.55 158.3-2.02 159.23-2.5 159.83-3.4L159.83-3.4 159.83-10.45Q157.23-9.8 155.8-9.15 154.38-8.5 153.78-7.6 153.18-6.7 153.18-5.35L153.18-5.35Q153.18-3.6 154.03-2.58 154.88-1.55 156.33-1.55L156.33-1.55ZM178.53 0.5Q181.38 0.5 183.68-1.05 185.98-2.6 187.28-5.3 188.58-8 188.58-11.4L188.58-11.4Q188.58-14.45 187.53-16.78 186.48-19.1 184.58-20.4 182.68-21.7 180.23-21.7L180.23-21.7Q176.73-21.7 174.08-18.85L174.08-18.85 174.08-36.05 173.68-36.05 167.88-34.1 167.88-33.75 170.83-32.65 170.83 0 171.23 0 172.73-1.35 172.93-1.35Q175.38 0.5 178.53 0.5L178.53 0.5ZM178.48 0Q176.48 0 175.28-1.38 174.08-2.75 174.08-5.05L174.08-5.05 174.08-18.1Q174.83-19.1 176-19.65 177.18-20.2 178.53-20.2L178.53-20.2Q181.48-20.2 183.15-17.55 184.83-14.9 184.83-10.35L184.83-10.35Q184.83-5.65 183.1-2.83 181.38 0 178.48 0L178.48 0ZM209.07-5.1L209.52-5.7 209.72-5.6 209.52-5.05Q208.52-2.4 206.55-0.95 204.57 0.5 201.82 0.5L201.82 0.5Q199.12 0.5 197.02-0.9 194.92-2.3 193.75-4.8 192.57-7.3 192.57-10.55L192.57-10.55Q192.57-13.8 193.82-16.35 195.07-18.9 197.37-20.3 199.67-21.7 202.62-21.7L202.62-21.7Q206.12-21.7 208-19.63 209.87-17.55 209.92-13.6L209.92-13.6 209.62-13.35 196.12-13.35Q196.02-12.05 196.02-11.3L196.02-11.3Q196.02-6.75 197.87-4.38 199.72-2 203.02-2L203.02-2Q204.72-2 206.3-2.78 207.87-3.55 209.07-5.1L209.07-5.1ZM202.07-21.15Q199.72-21.15 198.17-19.2 196.62-17.25 196.17-13.9L196.17-13.9 205.87-14.25Q206.02-14.85 206.02-16.25L206.02-16.25Q206.02-18.95 205-20.05 203.97-21.15 202.07-21.15L202.07-21.15ZM224.37-21.7Q225.37-21.7 226.07-21.03 226.77-20.35 226.77-19.4L226.77-19.4Q226.77-18.6 226.22-18.05 225.67-17.5 224.87-17.5L224.87-17.5Q224.37-17.5 224.05-17.73 223.72-17.95 223.37-18.4L223.37-18.4Q223.02-18.8 222.75-19 222.47-19.2 222.07-19.2L222.07-19.2Q221.27-19.2 220.45-18.25 219.62-17.3 219.27-16.05L219.27-16.05 219.27-0.8 223.27-0.4 223.27 0 212.97 0 212.97-0.4 216.02-0.8 216.02-18.3 213.07-19.4 213.07-19.75 218.72-21.7 219.12-21.7 219.12-17.3Q221.92-21.7 224.37-21.7L224.37-21.7ZM245.37-5.1L245.82-5.7 246.02-5.6 245.82-5.05Q244.82-2.4 242.84-0.95 240.87 0.5 238.12 0.5L238.12 0.5Q235.42 0.5 233.32-0.9 231.22-2.3 230.04-4.8 228.87-7.3 228.87-10.55L228.87-10.55Q228.87-13.8 230.12-16.35 231.37-18.9 233.67-20.3 235.97-21.7 238.92-21.7L238.92-21.7Q242.42-21.7 244.29-19.63 246.17-17.55 246.22-13.6L246.22-13.6 245.92-13.35 232.42-13.35Q232.32-12.05 232.32-11.3L232.32-11.3Q232.32-6.75 234.17-4.38 236.02-2 239.32-2L239.32-2Q241.02-2 242.59-2.78 244.17-3.55 245.37-5.1L245.37-5.1ZM238.37-21.15Q236.02-21.15 234.47-19.2 232.92-17.25 232.47-13.9L232.47-13.9 242.17-14.25Q242.32-14.85 242.32-16.25L242.32-16.25Q242.32-18.95 241.29-20.05 240.27-21.15 238.37-21.15L238.37-21.15ZM251.27-28.9Q251.27-29.95 251.94-30.63 252.62-31.3 253.67-31.3L253.67-31.3Q254.72-31.3 255.39-30.63 256.07-29.95 256.07-28.9L256.07-28.9Q256.07-27.85 255.39-27.18 254.72-26.5 253.67-26.5L253.67-26.5Q252.62-26.5 251.94-27.18 251.27-27.85 251.27-28.9L251.27-28.9ZM255.57-0.8L255.57-21.7 255.17-21.7 249.37-19.75 249.37-19.4 252.32-18.3 252.32-0.8 249.27-0.4 249.27 0 258.62 0 258.62-0.4 255.57-0.8ZM277.96-5.1L278.41-5.7 278.61-5.6 278.41-5.05Q277.41-2.4 275.44-0.95 273.46 0.5 270.71 0.5L270.71 0.5Q268.01 0.5 265.91-0.9 263.81-2.3 262.64-4.8 261.46-7.3 261.46-10.55L261.46-10.55Q261.46-13.8 262.71-16.35 263.96-18.9 266.26-20.3 268.56-21.7 271.51-21.7L271.51-21.7Q275.01-21.7 276.89-19.63 278.76-17.55 278.81-13.6L278.81-13.6 278.51-13.35 265.01-13.35Q264.91-12.05 264.91-11.3L264.91-11.3Q264.91-6.75 266.76-4.38 268.61-2 271.91-2L271.91-2Q273.61-2 275.19-2.78 276.76-3.55 277.96-5.1L277.96-5.1ZM270.96-21.15Q268.61-21.15 267.06-19.2 265.51-17.25 265.06-13.9L265.06-13.9 274.76-14.25Q274.91-14.85 274.91-16.25L274.91-16.25Q274.91-18.95 273.89-20.05 272.86-21.15 270.96-21.15L270.96-21.15Z" opacity="1" transform="matrix(1,0,0,1,0,0)" fill="#ffffff" class="slogan-text-1" data-fill-palette-color="secondary" id="text-1"></path></svg></g></svg></g></svg></g></svg></g><g transform="matrix(1,0,0,1,144.40729779430626,0)"><svg viewBox="0 0 106.70540441138746 72.9513837391786" height="72.9513837391786" width="106.70540441138746"><g><svg xmlns="http://www.w3.org/2000/svg" xmlns:xlink="http://www.w3.org/1999/xlink" version="1.1" x="8" y="0" viewBox="0 9.786 100.00034525290006 80.42699999999999" enable-background="new 0 0 100 100" xml:space="preserve" width="90.70540441138746" height="72.9513837391786" class="icon-icon-0" data-fill-palette-color="accent" id="icon-0"><path d="M49.942 52.994c13.552-0.488 27.103-0.977 40.653-1.465-2.527-4.177-3.159-7.831-7.989-8.461-7.229-0.94-14.458-1.883-21.688-2.826-14.023-1.827-28.05-3.654-42.075-5.48C20.101 36.792 39.724 53.361 49.942 52.994z" fill="#ffffff" data-fill-palette-color="accent"></path><path d="M0 9.786c4.391 7.257 26.615 23.072 32.953 23.886 17.33 2.231 34.657 4.46 51.986 6.688-3.393-5.607-4.18-9.35-10.312-10.959-8.904-2.341-17.812-4.683-26.717-7.023C31.94 18.182 15.97 13.984 0 9.786z" fill="#ffffff" data-fill-palette-color="accent"></path><path d="M63.108 66.207c10.413-2.219 20.826-4.439 31.241-6.66-2.028-3.346-2.034-5.359-5.827-5.189-6.158 0.273-12.314 0.549-18.471 0.822-11.343 0.506-22.686 1.014-34.028 1.518C37.298 58.064 54.94 67.947 63.108 66.207z" fill="#ffffff" data-fill-palette-color="accent"></path><path d="M87.682 90.213c5.725-3.719 7.262-7.721 10.519-13.807 3.651-6.824 1.257-7.844-2.821-14.596-0.417-0.688-5.842 0.232-6.453 0.904-0.745 0.818-0.248 5.455-0.294 6.496C88.315 76.211 87.998 83.213 87.682 90.213z" fill="#ffffff" data-fill-palette-color="accent"></path><path d="M86.35 63.447c-3.795 0.809-8.604 0.191-9.572 4.229-1.373 5.736-2.746 11.475-4.12 17.211C81.904 82.678 86.028 71.582 86.35 63.447z" fill="#ffffff" data-fill-palette-color="accent"></path><path d="M74.666 66.121c-9.148 1.953-8.956 4.611-12.879 13.18C68.007 78.711 73.811 71.941 74.666 66.121z" fill="#ffffff" data-fill-palette-color="accent"></path></svg></g></svg></g><g><rect width="144.40729779430626" height="2.497471142632107" y="69.45391259654649" x="251.11270220569372" fill="#ffffff" data-fill-palette-color="accent"></rect><rect width="144.40729779430626" height="2.497471142632107" y="69.45391259654649" x="0" fill="#ffffff" data-fill-palette-color="accent"></rect><rect width="144.40729779430626" height="2.497471142632107" y="64.45897031128227" x="251.11270220569372" fill="#ffffff" data-fill-palette-color="accent"></rect><rect width="144.40729779430626" height="2.497471142632107" y="64.45897031128227" x="0" fill="#ffffff" data-fill-palette-color="accent"></rect></g></svg></g><defs></defs></svg><rect width="395.52" height="132.2760852255361" fill="none" stroke="none" visibility="hidden"></rect></g></svg></g></svg>